# xmcd
#
# Track frame offsets: 
#        150
#        19562
#        38124
#        51671
#        71235
#        87219
#        105084
#        125690
#        144668
#        165204
#        188542
#        203143
#
# Disc length: 2941 seconds
#
# Revision: 1
# Processed by: cddbd v1.5.2PL0 Copyright (c) Steve Scherf et al.
# Submitted via: ExactAudioCopy v0.99pb4
#
DISCID=9c0b7b0c
DTITLE=Sara Bareilles - Little Voice
DYEAR=2007
DGENRE=Pop
TTITLE0=Love Song
TTITLE1=Vegas
TTITLE2=Bottle It Up
TTITLE3=One Sweet Love
TTITLE4=Come Round Soon
TTITLE5=Morningside
TTITLE6=Between The Lines
TTITLE7=Love On The Rocks
TTITLE8=City
TTITLE9=Many The Miles
TTITLE10=Fairytale
TTITLE11=Gravity
EXTD=
EXTT0=
EXTT1=
EXTT2=
EXTT3=
EXTT4=
EXTT5=
EXTT6=
EXTT7=
EXTT8=
EXTT9=
EXTT10=
EXTT11=
PLAYORDER=
